<svg width="31" height="30" viewBox="0 0 31 30" fill="none" xmlns="http://www.w3.org/2000/svg">
<path d="M15.469 9.19801L6.66273 0.751626C6.66273 0.751626 4.53144 -0.520148 2.36746 1.61232C0.203481 3.74479 -0.136479 6.24338 1.40642 7.51516C2.94932 8.78693 8.83325 14.4007 8.83325 14.4007C8.83325 14.4007 9.20589 15.1008 8.32984 16.0386C7.45379 16.9764 0.111954 24.1638 0.111954 24.1638C0.111954 24.1638 -0.600655 26.9129 1.56986 28.5123C3.74038 30.1116 5.78668 30.5613 7.32957 29.1674C8.87247 27.7736 14.593 21.7873 14.593 21.7873C14.593 21.7873 15.384 20.7211 17.0969 22.1984C18.8098 23.6757 23.9419 29.4565 23.9419 29.4565C23.9419 29.4565 25.9032 31.2164 29.159 28.3067C32.4147 25.3971 30.7868 23.4701 28.6163 21.5818C26.4458 19.6934 22.4382 16.1671 22.4382 16.1671C22.4382 16.1671 21.1045 15.1394 23.0658 13.0519C25.0271 10.9644 30.12 6.65446 30.12 6.65446C30.12 6.65446 32.4147 4.23295 29.5381 1.61232C26.6616 -1.0083 25.0337 0.0129695 23.0724 1.52882C21.111 3.04468 15.4755 9.19801 15.4755 9.19801H15.469Z" fill="#F7778C"/>
</svg>
