<svg width="16" height="16" viewBox="0 0 16 16" fill="none" xmlns="http://www.w3.org/2000/svg">
<path d="M7.50003 3H9.50002C9.63263 3 9.75981 2.94732 9.85358 2.85355C9.94735 2.75979 10 2.63261 10 2.5V1.5C10 1.36739 9.94735 1.24021 9.85358 1.14645C9.75981 1.05268 9.63263 1 9.50002 1H7.50003C7.36742 1 7.24024 1.05268 7.14647 1.14645C7.0527 1.24021 7.00003 1.36739 7.00003 1.5V2.5C7.00003 2.63261 7.0527 2.75979 7.14647 2.85355C7.24024 2.94732 7.36742 3 7.50003 3ZM7.50003 7H11.5C11.6326 7 11.7598 6.94732 11.8536 6.85355C11.9473 6.75979 12 6.63261 12 6.5V5.5C12 5.36739 11.9473 5.24021 11.8536 5.14645C11.7598 5.05268 11.6326 5 11.5 5H7.50003C7.36742 5 7.24024 5.05268 7.14647 5.14645C7.0527 5.24021 7.00003 5.36739 7.00003 5.5V6.5C7.00003 6.63261 7.0527 6.75979 7.14647 6.85355C7.24024 6.94732 7.36742 7 7.50003 7ZM15.5 13H7.50003C7.36742 13 7.24024 13.0527 7.14647 13.1464C7.0527 13.2402 7.00003 13.3674 7.00003 13.5V14.5C7.00003 14.6326 7.0527 14.7598 7.14647 14.8536C7.24024 14.9473 7.36742 15 7.50003 15H15.5C15.6326 15 15.7598 14.9473 15.8536 14.8536C15.9473 14.7598 16 14.6326 16 14.5V13.5C16 13.3674 15.9473 13.2402 15.8536 13.1464C15.7598 13.0527 15.6326 13 15.5 13ZM7.50003 11H13.5C13.6326 11 13.7598 10.9473 13.8536 10.8536C13.9473 10.7598 14 10.6326 14 10.5V9.5C14 9.36739 13.9473 9.24021 13.8536 9.14645C13.7598 9.05268 13.6326 9 13.5 9H7.50003C7.36742 9 7.24024 9.05268 7.14647 9.14645C7.0527 9.24021 7.00003 9.36739 7.00003 9.5V10.5C7.00003 10.6326 7.0527 10.7598 7.14647 10.8536C7.24024 10.9473 7.36742 11 7.50003 11ZM5.50002 11H4.00002V1.5C4.00002 1.36739 3.94735 1.24021 3.85358 1.14645C3.75981 1.05268 3.63263 1 3.50002 1H2.50002C2.36742 1 2.24024 1.05268 2.14647 1.14645C2.0527 1.24021 2.00002 1.36739 2.00002 1.5V11H0.500024C0.0565866 11 -0.167788 11.5387 0.147212 11.8534L2.64721 14.8534C2.74097 14.9471 2.8681 14.9998 3.00065 14.9998C3.1332 14.9998 3.26033 14.9471 3.35409 14.8534L5.85409 11.8534C6.16721 11.5394 5.9444 11 5.50002 11Z" fill="#686868" fill-opacity="0.8"/>
</svg>
